<svg id="Layer_1" data-name="Layer 1" xmlns="http://www.w3.org/2000/svg" viewBox="0 0 1000 219.42"><defs><style>.cls-1{fill:#ed2224;}.cls-2{fill:#010101;}.cls-3,.cls-4{fill:#fff;}.cls-4{fill-rule:evenodd;}</style></defs><title>Logo</title><g id="Group_91" data-name="Group 91"><rect id="Rectangle_115" data-name="Rectangle 115" class="cls-1" width="332.99" height="219.42"/><rect id="Rectangle_116" data-name="Rectangle 116" class="cls-2" x="333.51" width="666.49" height="219.42"/><g id="Group_86" data-name="Group 86"><path id="Path_258" data-name="Path 258" class="cls-3" d="M463.19,84.87a29.51,29.51,0,0,0,3.51-9,8.25,8.25,0,0,0,.45-3.75c0-.08-.29-.7-.58-.74s-.57.66-.7.87a9.47,9.47,0,0,0-.49,2.8A29.43,29.43,0,0,1,464,78.33a40.64,40.64,0,0,1-2.93,5.82c-1.2,2-1.52,2.68-3.13,5.19-1.73,2.76-3,4.37-5.2,7.67a119,119,0,0,1-7.91,10.63,106.36,106.36,0,0,1-8.9,9.72,28.32,28.32,0,0,1-8.37,6c-3.67.75-5.11-.33-5.81-2.87a30.08,30.08,0,0,1-1.24-6.43c-.16-2.56,0-5.81.08-8.33a24.84,24.84,0,0,1,1.44-4.78,5.88,5.88,0,0,0-1.15-3.3,4.22,4.22,0,0,0-2.72-1,4.78,4.78,0,0,0-5.07,2.68,48.68,48.68,0,0,1-4.08,5.4c-2.84,3-6.19,7.42-10.72,11.83a63,63,0,0,1-8.12,6.72,10.6,10.6,0,0,1-6.26,2.72c-1.16,0-2.36-2-2.48-3.63a30.16,30.16,0,0,1,.58-8.94,26.88,26.88,0,0,1,4-9.49c.79-1.11,1.65-2.72,2.77-4.28s2.47-3.26,3.71-5c.33-.41,5.56-4.2,5.93-4.57a27.78,27.78,0,0,1,4.74-2.48,12.43,12.43,0,0,0,2.47-3.17c.29-.5.58-3-1.08-3.79a4.23,4.23,0,0,0-2.63-1.08,9.38,9.38,0,0,0-3.42.28,21.59,21.59,0,0,0-4.54,4c-.62,1.24-3.24,3.88-3.91,5-1.41,2.18-4.25,5.81-6.23,9.4a112.77,112.77,0,0,0-5.07,10.14,60.62,60.62,0,0,0-4.67,14.26,21.83,21.83,0,0,0,.41,8.48,5,5,0,0,0,2.88,2.48,8.7,8.7,0,0,0,4-.33c3.8-.74,5.73-2.68,10.1-6.18,1.49-1.24,3.79-3.88,6.89-7,2.68-2.72,4.94-5.52,6.59-7.34.33-.41,3-3,4.7-4.66a14,14,0,0,1,3-2.15c1.69-.83,1.69,1.89,1.69,2.18,0,2.47,0,5.65.16,7.75a56.39,56.39,0,0,0,1.16,7.42c1,3.92,3.71,7.42,6.27,7.62a13.38,13.38,0,0,0,5.64-1.15,19,19,0,0,0,6.31-4.65l4.82-4.79a129.28,129.28,0,0,0,10.1-13,114.06,114.06,0,0,0,7-10.27C458.33,93.26,460.14,90.43,463.19,84.87Z" transform="translate(0 0)"/><path id="Path_259" data-name="Path 259" class="cls-3" d="M481.14,104.24c.66,0,.36-.16,1.08-.62a5.92,5.92,0,0,0,2.6-3.75,3.08,3.08,0,0,0-.58-1.65,2.74,2.74,0,0,0-1.8-.74,12.27,12.27,0,0,0-2.1.12,15,15,0,0,0-2.4.87c-.71.33-1.56.86-2.26,1.27a89.62,89.62,0,0,0-8.17,5.76c-.53.41-1.19,1.08-1.89,1.69a2.45,2.45,0,0,1-.95.45c-.21,0-.16-.33,0-.61l.95-1.53a11.64,11.64,0,0,1,1.32-1.4,3.69,3.69,0,0,0,1-1.44,2.2,2.2,0,0,0-.29-1.8,3.55,3.55,0,0,0-2.56-1.4,7.58,7.58,0,0,0-2.76.28,3,3,0,0,0-1.81,1.86c-.46.74-.54,3.13-1,3.79-.72,1.08-3.14,4.46-4,5.69a42.63,42.63,0,0,0-4.08,6.6A11.33,11.33,0,0,0,450,122c.12.87,1.48,3,2.47,3.06a5,5,0,0,0,3.71-1.44,5.37,5.37,0,0,0,1.11-2.16,14.5,14.5,0,0,1,.36-2.27,9.42,9.42,0,0,1,1.44-2.8,24,24,0,0,1,4.12-4.53,56.83,56.83,0,0,1,5.69-4.95,33.26,33.26,0,0,1,4.29-2.85,12.52,12.52,0,0,1,3.13-.74,6.44,6.44,0,0,1,2.47.74A4.65,4.65,0,0,0,481.14,104.24Z" transform="translate(0 0)"/><path id="Path_260" data-name="Path 260" class="cls-3" d="M497.68,94.31a9.21,9.21,0,0,0,3.09-.75,15.45,15.45,0,0,0,3.6-2.84,13.29,13.29,0,0,0,1.15-1.53c.25-.36,1-2,.72-2.68A3.83,3.83,0,0,0,503.19,85a5,5,0,0,0-1.8.21,12.25,12.25,0,0,0-3.05,2.35,7.6,7.6,0,0,0-2,4.08,6.62,6.62,0,0,0-.17,1.4C496.11,93.52,496.94,94.27,497.68,94.31Z" transform="translate(0 0)"/><path id="Path_261" data-name="Path 261" class="cls-3" d="M528.06,101.6a5.39,5.39,0,0,0,.49-1.86,3.12,3.12,0,0,0-1-1.43,8.86,8.86,0,0,0-1.93-.62,7.89,7.89,0,0,0-3.06.16,34.68,34.68,0,0,0-4.24,1.2,17.84,17.84,0,0,0-2.88,1.32c-1,.58-2.26,1.23-3.5,2a32.82,32.82,0,0,0-3.3,2.22,9.72,9.72,0,0,0-2.51,2.76,3.31,3.31,0,0,0-.31,2.31h0c-.49.33-1.77,1-3.17,1.73s-2.76,1.49-3.75,2.1-2.19,1.28-3.18,1.77c-1.73.87-3.23,1.53-4.37,2a16,16,0,0,1-4,.83c-.33,0-.5-.17-.66-.58s0-1.77.72-3.3a26.28,26.28,0,0,1,3-4.94c.5-.62,1.28-1.69,2.11-2.72.66-.83,1.31-1.61,1.8-2.11a7.9,7.9,0,0,0,2-2.22c.29-1-.94-2.52-2.55-2.27-.54.08-1.4-.33-2.43.33a25.32,25.32,0,0,0-2.68,2.16c-.49.54-2.06,2.16-2.16,3a10.93,10.93,0,0,1-2.1,3.71,42,42,0,0,0-3.13,5.65,13.79,13.79,0,0,0-1.36,6.35,5.49,5.49,0,0,0,.74,2.18c.53.66,1.32.74,1.69,1a3.56,3.56,0,0,0,3,.12c.3-.12,1.44-.78,1.94-1.08a51.4,51.4,0,0,0,4.26-3.1,4.87,4.87,0,0,0,.45.84,4.8,4.8,0,0,0,1.65,1.31,19.92,19.92,0,0,0,3.33,1.41,34.82,34.82,0,0,0,3.76,1,18,18,0,0,0,5.43.41c1-.21,2.52-.17,3.8-.33a20.85,20.85,0,0,0,4.41-1c1-.45,2.16-.82,3.17-1.36a27,27,0,0,0,3.22-1.94c1.08-1.24,1.24-1.52,1.36-2.23a4.34,4.34,0,0,0-1-3.79,11.45,11.45,0,0,0-3.18-2.43c-1.11-.7-2.26-1.89-3.3-2.47a9,9,0,0,1-2.05-1.52c-.42-.46-2.07-1.16-1.41-2.23a3.4,3.4,0,0,1,1.77-1.73c.54-.25,1.28-.54,2.36-1.12.32-.24.94-.08,1.68-.41a14.74,14.74,0,0,1,2.48-.21c.58-.12.66.13.86.21s.46.13.54.54a9.75,9.75,0,0,0,0,1.08c.17,1.11,1,1.36,2,1.24a8.58,8.58,0,0,0,2.52-.83A6.85,6.85,0,0,0,528.06,101.6ZM512.4,115.66c1.19.94,2.16,2.52,1.65,3.62a3.74,3.74,0,0,1-2.93,2.16c-1.24.12-2.47.54-3.42.66-2.68.25-4.13,0-5.78.13a18.24,18.24,0,0,1-5.19-.79,21.09,21.09,0,0,1-2.68-.9,5.44,5.44,0,0,1-1.58-1l.63-.45c1.4-.94,4.37-2.76,5.9-3.87a28.83,28.83,0,0,1,5.35-3c.49-.28,1.73-.6,2.52-1,.36.28.75.56,1.2.87.66.45,1.4.91,2.1,1.4a27.45,27.45,0,0,1,2.23,2.09Z" transform="translate(0 0)"/><path id="Path_262" data-name="Path 262" class="cls-3" d="M589.52,102.22a4,4,0,0,0-2.77-3.92A6.21,6.21,0,0,0,584.4,98a28.94,28.94,0,0,0-6.71,1.86,37.46,37.46,0,0,0-4.5,2.43c-2.31,1.32-4.61,2.39-6.59,3.75a8.51,8.51,0,0,1-1.9.91c-1.11.29-1.2-1.08-.9-1.69a26.74,26.74,0,0,1,1.48-2.6c.66-1,1.4-2.31,2.23-3.79.74-1.32,1.6-2.76,2.51-4.2a30.28,30.28,0,0,1,3.88-5.07c1-1,1.94-2.07,2.8-2.93a8.43,8.43,0,0,1,2.93-2.16,4.53,4.53,0,0,0,2.47-1.8,2,2,0,0,0-.25-2.76,4.78,4.78,0,0,0-3.23-1.15,9.06,9.06,0,0,0-4.09,2,35.43,35.43,0,0,0-2,3c-1.12,1.74-2.23,3.6-2.77,4.29-.19.24-.45.55-.72.91-1.61-.11-3.65-.21-5.7-.21-3.62,0-7.55.21-10.88.45a10,10,0,0,1,.87-.65,16,16,0,0,0,3.3-2.31,2.81,2.81,0,0,0,.86-2c0-.58-.36-2.27-.78-2.52a6.41,6.41,0,0,0-4.5.29,3.58,3.58,0,0,0-1.79,2.22,11.05,11.05,0,0,1-1.53,2.39c-.87,1-1.9,2.06-2.93,3.18-2.59.2-5.48.29-8,.41-2.31.13-3.84-.36-5.28-.12-1.77.28-3.34,2.72-3.63,3-.58.62-.66,2.35.13,2.77a13.24,13.24,0,0,0,4.12.2c.86-.25,5-1.27,6.14-1.68a36,36,0,0,1,3.79-1c-2.52,3.51-5.44,6.93-7.75,10.47-1.52,2.23-3.33,5.53-5.19,8.62a29.18,29.18,0,0,0-2.77,5.6,7.18,7.18,0,0,0-.45,3.55,3.24,3.24,0,0,0,1.82,2.43,5.67,5.67,0,0,0,3.5.66,10.89,10.89,0,0,0,2.56-1c1.11-.74,4.16-2.31,4.7-2.64,3-1.73,4-2.47,8.2-4.7a68.15,68.15,0,0,1,6.24-3.08c-.12.61-.21,1.24-.3,2a2.6,2.6,0,0,0,1.52,2.64l-.29.36a7.12,7.12,0,0,0-1.28,4.31c.21,1.7,2.19,2.35,3.14,2.48a17.29,17.29,0,0,0,9-1.73c2.18-1.24,4.53-2.35,6.63-3.34a69.86,69.86,0,0,0,9.89-7.38,46.65,46.65,0,0,0,4.29-4.49A11.18,11.18,0,0,0,589.52,102.22ZM551.1,112.81c-2.11,1.08-5.32,2.06-7.67,3.22a33.28,33.28,0,0,1-6.48,2.43,3.18,3.18,0,0,1-1.73,0c-.36-.17-.5-.54-.5-1.15a14,14,0,0,1,1.57-4.62c.86-1.65,2.23-4.82,3.24-6.31,1.85-2.92,3.13-5.36,5.68-8.94a53.31,53.31,0,0,1,4.3-5.07,29.87,29.87,0,0,0,3.87-.58,23.71,23.71,0,0,1,4.74-.87c1.85-.12,4.12-.45,6.18-.49,1,0,2.35,0,3.51,0-.77,1-1.65,2.21-2.52,3.41-1.81,2.47-3.59,5-4.31,6.14-1.32,1.85-2.11,3-2.68,3.83-.74,1.16-1.16,1.94-2,3.42a22.76,22.76,0,0,0-1.44,2.88,14.65,14.65,0,0,0-.56,1.52c-1.18.42-2.53.86-3.21,1.18Zm29.72-8.53a11.93,11.93,0,0,1-4.16,5.4c-1.12.82-2.64,2.22-4.91,3.67q-4.31,3-8.9,5.48a43.54,43.54,0,0,1-5.11,2.1c-1.24.33-1.16.29-1.49-.16s-.24-1.69,0-2.44a2.83,2.83,0,0,1,.41-.61,4.33,4.33,0,0,0,2.06-1.16,19.6,19.6,0,0,0,1.65-2.19,12.38,12.38,0,0,1,1.86-2.1,25.11,25.11,0,0,1,3.75-3.3c3-2.15,4.9-2.92,7.38-4.49a19.17,19.17,0,0,1,6.67-2.22,3.13,3.13,0,0,1,1.36.12c.59.21-.32,1.53-.52,1.9Z" transform="translate(0 0)"/><path id="Path_263" data-name="Path 263" class="cls-3" d="M735.23,98.3a8.86,8.86,0,0,0-1.93-.62,7.89,7.89,0,0,0-3.06.16A34.18,34.18,0,0,0,726,99a17,17,0,0,0-2.88,1.32c-1,.58-2.27,1.23-3.5,2a32.33,32.33,0,0,0-3.3,2.23,9.76,9.76,0,0,0-2.52,2.76,3.47,3.47,0,0,0-.27,2.62c-.75.49-1.9,1.52-3.49,2.54s-3.87,2.26-5.81,3.38a12.66,12.66,0,0,1-5.81,2.31,2.56,2.56,0,0,1-2.31-1.61,11.46,11.46,0,0,1,.16-4,32.33,32.33,0,0,1,1-3.75,24.28,24.28,0,0,1,1.44-3.26,5.06,5.06,0,0,0,1.77-.91,3.48,3.48,0,0,0,1.36-1.77,2.72,2.72,0,0,0-.36-2.47c.7-1,1.28-2,1.94-3,.41-.66.91-1.32,1.44-2A28.16,28.16,0,0,1,707,92.48a16.89,16.89,0,0,1,2.31-2.16,10,10,0,0,0,2.31-2.51c.78-1.2,1.36-2.48,2.1-3.63a3.66,3.66,0,0,0,.12-3.3c-.41-.82-1.94-.91-2.47-.94a4.94,4.94,0,0,0-3.87,2.22l-2.6,4.29c-.75,1.23-1.57,2.52-2.52,4-.74,1.11-1.61,2.68-2.47,4.2s-1.69,3-2.27,4a9.23,9.23,0,0,0-3.24-.62,20.39,20.39,0,0,0-4,.5,28,28,0,0,0-8.08,2.92,66.88,66.88,0,0,0-7.13,5.15,38.36,38.36,0,0,0-4.12,3.94,2.24,2.24,0,0,0-.59.27,63.54,63.54,0,0,1-7.21,5.22,26.13,26.13,0,0,1-5.57,2.72c-1,.36-1.8.2-2.22-.46a5.18,5.18,0,0,1-.46-2.63c0-.46.46-1.69.58-2.68a32.44,32.44,0,0,1,1-3.63,22.62,22.62,0,0,1,2.39-5.64,6,6,0,0,0,.91-2.52,1.67,1.67,0,0,0-.62-1.52,3.34,3.34,0,0,0-3-1,10.94,10.94,0,0,0-3,1.32c-.54.5-1.57,1.2-2.35,1.8s-2.1,1.73-3.09,2.52c-1.9,1.48-3.43,2.64-5.61,4.2a51.9,51.9,0,0,1-5.23,3.63c-.17,0-.41,0-.41-.24a6.14,6.14,0,0,1,.94-2.48c.79-1,1.77-2.06,2.72-3.13.29-.29,1.53-1,1.77-1.32a5.77,5.77,0,0,0,1-2,3.18,3.18,0,0,0,0-1.65,2.67,2.67,0,0,0-1.69-1.08,7.45,7.45,0,0,0-3.18.33,3.5,3.5,0,0,0-2,1.2c-.7.87-1,1.8-1.56,2.68,0,.08-1.44,2.26-2,3.21s-1.75,2.63-2.63,3.87c-1.44,1.08-3.72,2.35-6.53,4.17a25.39,25.39,0,0,1-5.15,2.6,2.56,2.56,0,0,1-2.88-.42,3.33,3.33,0,0,1-.61-2.35,10.24,10.24,0,0,1,1.11-3.74c.25-.42.45-2.16,1.85-2.88a2.49,2.49,0,0,0,1.2-2.56,1.62,1.62,0,0,0-.58-1.48,6.72,6.72,0,0,0-2.39-.78,3.77,3.77,0,0,0-2.35,1.08c-3.3,1.73-13.93,8.24-18.42,10.76-.87.45-2.11,1.4-2.19,1.11s1.44-2.52,1.69-2.76a23.15,23.15,0,0,1,3.3-3.34,34,34,0,0,1,5-4.32,22.87,22.87,0,0,1,4.37-2.59,7.39,7.39,0,0,1,2.38-.36,9.28,9.28,0,0,1,2.88.12,13.26,13.26,0,0,0,1.65-.91,3,3,0,0,0,1-1.69,7.53,7.53,0,0,0,.29-1.56c-.13-1-1.86-2.19-3.8-2.11a18.2,18.2,0,0,0-5.15,1.78,67.4,67.4,0,0,0-6.35,3.34,58.47,58.47,0,0,0-5.35,4.2,66,66,0,0,0-6.48,6.14,38.56,38.56,0,0,0-3.13,4.29,11.41,11.41,0,0,0-1.65,3.92,5.94,5.94,0,0,0,1.48,3.38,5.14,5.14,0,0,0,4.16.45c.83-.29,1.86-1.73,3.39-3.22,1-1,2.63-2.22,3.33-3a25.62,25.62,0,0,1,5.24-4.08l4-2.47a24.19,24.19,0,0,1,2.63-1.08,6.76,6.76,0,0,1,1.94-.29c.46,0,.46.42.36.87-.29,1-.2,1-.49,2.27a42.46,42.46,0,0,0-.66,5,4.68,4.68,0,0,0,3.69,5.49l.23,0c2.1-.13,2.51-.62,4.57-2.16s5.07-3.92,7.91-5.85c.52-.36,1.28-.85,2.07-1.34-.52.88-.91,1.67-1.08,2a14.47,14.47,0,0,0-1.53,4.13,3.68,3.68,0,0,0,2.24,3.13,2.87,2.87,0,0,0,2.75-.72,22.41,22.41,0,0,0,2.48-2.76c.74-1,.7-.87,1.85-2.52a40.81,40.81,0,0,1,4.13-4.29c1.11-1,2.52-2.47,4-3.59,1.78-1.37,2.4-1.74,4.13-2.93a13,13,0,0,1,3-1.65c.87-.16,1.37.36,1.32,1.24a5.94,5.94,0,0,1-.2,1.73c-.41,1.85-1.12,4.66-1.28,6.22s-.36,3.09-.45,4c-.17,2.88,1.11,5.44,3.34,5.32a6.81,6.81,0,0,0,4.45-1.69c2.18-1.44,5.19-3.6,7.95-5.61l3.21-2.26-.76,1.19a12.26,12.26,0,0,0-1.8,5.81,3.85,3.85,0,0,0,1.86,2.93,3.65,3.65,0,0,0,2.8.33,14.68,14.68,0,0,0,4.78-3.6l1.6-1.43c1-.91,2.4-2.07,4.25-3.47,1.2-.9,2.47-1.77,4.41-3.13a30,30,0,0,1,5-2.35,6.85,6.85,0,0,1,2.27-.58c-.21.62-.62,1.53-1.08,2.72a19.9,19.9,0,0,0-1,3.55,20.68,20.68,0,0,0-.41,3.6,3.93,3.93,0,0,0,.82,3,3.28,3.28,0,0,0,2.6,1.08,5.49,5.49,0,0,0,3.13-.82,35.2,35.2,0,0,0,3.78-2.37,5.1,5.1,0,0,0,1.39,1,19.08,19.08,0,0,0,3.33,1.4,32.66,32.66,0,0,0,3.76,1,18.4,18.4,0,0,0,5.44.42c1-.21,2.52-.17,3.79-.34a21.47,21.47,0,0,0,4.41-1c1-.46,2.16-.83,3.18-1.36a29.12,29.12,0,0,0,3.21-1.94c1.08-1.24,1.24-1.53,1.36-2.23a4.33,4.33,0,0,0-1-3.79,11.26,11.26,0,0,0-3.18-2.43c-1.11-.7-2.26-1.9-3.3-2.48a8.46,8.46,0,0,1-2-1.52c-.42-.45-2.06-1.15-1.41-2.23a3.51,3.51,0,0,1,1.77-1.73c.54-.24,1.28-.53,2.36-1.11.33-.25.94-.08,1.68-.41a14.74,14.74,0,0,1,2.48-.21c.58-.12.66.13.86.21s.46.12.54.53a9.75,9.75,0,0,0,0,1.08c.17,1.12,1,1.36,2,1.24a8.56,8.56,0,0,0,2.52-.82,6.83,6.83,0,0,0,2.8-3.14,5.4,5.4,0,0,0,.49-1.85A3.05,3.05,0,0,0,735.23,98.3Zm-41.93,7.87a64.86,64.86,0,0,0-8.9,5.36c-1.94,1.36-4.42,2.68-6.19,4-2.59,1.89-3.63,2.15-4,2.15s-.66-.61-.21-1.52a12.41,12.41,0,0,1,2.76-4,53.55,53.55,0,0,1,6.56-5.94,26.41,26.41,0,0,1,6.47-3.79,5.66,5.66,0,0,1,2.23-.45c2.05,0,1.36,1.4,1.19,2.84,0,.45.25.66.79.82a3.6,3.6,0,0,0-.71.58Zm26.81,9.48c1.19.95,2.15,2.52,1.64,3.63a3.75,3.75,0,0,1-2.92,2.16c-1.24.12-2.48.53-3.43.65-2.68.25-4.12,0-5.75.13a18.35,18.35,0,0,1-5.2-.78,22.69,22.69,0,0,1-2.67-.91l-.36-.18c1.37-1,2.79-2,4.15-2.91.95-.62,1.8-1.28,2.64-1.86,2.39-1.73,4.24-3.21,5.9-4.29a.76.76,0,0,0,.25-.19c.4.33.89.69,1.44,1.06s1.4.91,2.11,1.4a28.78,28.78,0,0,1,2.18,2.1Z" transform="translate(0 0)"/><path id="Path_264" data-name="Path 264" class="cls-3" d="M865.51,102.88a5.46,5.46,0,0,0-1-2.84,4.53,4.53,0,0,0-2.43-1.66,11.89,11.89,0,0,0-2.85-.35,14.33,14.33,0,0,0-4.67.94,40.52,40.52,0,0,0-4.37,2.31c-.33.25-.54.45-.78.66a6,6,0,0,0-1.2,0,10.54,10.54,0,0,0-3.3.92h0a28.46,28.46,0,0,0-5.57-1c-1.27-.13-2.68-.25-4-.33-2-.13-3.91-.21-5.48-.25h-4c1.6-2.31,3.17-4.53,4.69-6.59l1.61-2.19c2.16-2.88,3.92-5.28,5-6.72,2.31-3.13,4.28-4.65,4.78-6.8.16-.41.41-2-.21-2.1-.25,0-.45-.87-1.19-1.16a10.79,10.79,0,0,0-3.8-.2,7.33,7.33,0,0,0-4.12,1.8c-.78.86-2.06,3.59-1.52,4.53a71.71,71.71,0,0,1-5.86,10.84c-1.93,3.05-3.59,5.9-5,8.58h-3.88c-5.4,0-11.09.08-16.57.49-4.62.33-8.7.46-12.2.62,1.19-1.94,2.55-4,4.12-6.31,1.94-2.72,6.31-7.13,8.57-9.81.5-.58,3.63-3.13,3.71-3.3a4.6,4.6,0,0,0,.83-2.43,5.78,5.78,0,0,0-.33-2.1,3,3,0,0,0-2.18-1.61,15.77,15.77,0,0,0-3.22-.08,9.21,9.21,0,0,0-2.8,1.36,30.56,30.56,0,0,0-3.88,6.22,39.32,39.32,0,0,1-3.59,6.31c-1.12,1.73-2.23,3.51-3.3,5.36-1.28,2.19-2.56,4.45-3.84,6.72-4.45.29-8.24.62-12.52,1.24-1.44.2-3.47-.42-5.65-.29a26.18,26.18,0,0,0-2.93.29c-3,.57-4.45,3.29-5.11,3.79a2.74,2.74,0,0,0,.25,3.5c1.19.75,2.22.72,5.31.79a51.36,51.36,0,0,0,7.18-2.11,24.83,24.83,0,0,1,3.33-.41c.79-.12,3.22-.74,4.09-.91l3-.66c-1.23,2.16-2.51,4.25-3.78,6.27a34.88,34.88,0,0,0-2.85,4.82c-.41.91-.66,1.28-2.16,4.66a24.83,24.83,0,0,1-1.85,4.86,22.16,22.16,0,0,0-1.78,5.73,25.46,25.46,0,0,0-.62,5.28c0,1.15,0,1.94.74,2.1.36.08.36,0,.5-.74a5.5,5.5,0,0,0,.08-.91,32.34,32.34,0,0,1,3.6-9.93l2.16-3.87c2.27-4.5,5.56-9.72,5.9-10.23,2.75-4.08,3.75-5.39,6.22-9.23l3.26-.5c3.78-.53,8-.78,11.91-1.08,2.93-.2,7.42-1.19,10.63-1.44,2.93-.2,5.81-.41,8.63-.57l-.74,1.43c-.83,1.74-1.57,3.38-2.23,5-1.23,2.93-2.22,5.56-3.24,8a64.58,64.58,0,0,0-2.26,8,53.71,53.71,0,0,0-1.16,6.3c-.2,2.84.41,3.05,1,3s.21-.62.5-1.94a42.88,42.88,0,0,1,1.28-5.32,49.37,49.37,0,0,1,1.81-5,109.71,109.71,0,0,1,8.24-15.33c1.08-1.57,1.08-2.56,2-3.92l.29-.45,4.86-.13q3.5-.09,7,.17a31.75,31.75,0,0,1,4.25.2,6.88,6.88,0,0,1,2.15.75,5.84,5.84,0,0,0-.53.33,44.53,44.53,0,0,0-6.43,5.19,44.7,44.7,0,0,0-3.75,5.11,22.68,22.68,0,0,0-1.4,2.84,9.89,9.89,0,0,0-.78,3.55,4,4,0,0,0,.78,2.22,6.91,6.91,0,0,0,1.73,1.32,9.09,9.09,0,0,0,3.67.67,11.15,11.15,0,0,0,3.09-.5,37.58,37.58,0,0,0,6.6-2.8c1.15-.62,2.35-1.32,3.54-2.11,1.4-.9,2.85-1.89,4.16-2.92a53.06,53.06,0,0,0,6.52-5.73,37.78,37.78,0,0,0,3.25-3.79A9.61,9.61,0,0,0,865.51,102.88Zm-7.17,5a8.27,8.27,0,0,1-2.52,3.79c-.58.58-1.28,1.48-1.8,2s-1.16,1-1.94,1.6a35.19,35.19,0,0,1-5.11,3.14,13,13,0,0,1-6.55,1.61c-1.2,0-1.57,0-2.16-.42s-.66-.74-.62-1.48a7.89,7.89,0,0,1,.58-2.39,14.63,14.63,0,0,1,1.85-2.93,20.5,20.5,0,0,1,4.13-3.87,15.84,15.84,0,0,1,3.21-.54,9,9,0,0,0,2.1-.74c1.57-.62,1.2-1.8,1.53-3.09a1.23,1.23,0,0,0-.41-1,7,7,0,0,1,2-1.4,6.19,6.19,0,0,1,3.67-.54,2.79,2.79,0,0,1,2.85,3.22,17,17,0,0,1-.82,3.05Z" transform="translate(0 0)"/><path id="Path_265" data-name="Path 265" class="cls-3" d="M923.56,104.32c.17,1.12,1,1.36,2,1.24a8.3,8.3,0,0,0,2.52-.83,6.81,6.81,0,0,0,2.8-3.13,5.18,5.18,0,0,0,.49-1.86,3,3,0,0,0-1-1.43,8.69,8.69,0,0,0-1.93-.62,7.83,7.83,0,0,0-3,.16,34.83,34.83,0,0,0-4.25,1.2,17.29,17.29,0,0,0-2.87,1.32c-1,.58-2.27,1.23-3.51,2a34.6,34.6,0,0,0-3.3,2.22,9.87,9.87,0,0,0-2.51,2.76,3.44,3.44,0,0,0-.25,2.77,1.41,1.41,0,0,0,.13.24h0c-2.27,1.57-5.24,3.75-6.14,4.41a25.25,25.25,0,0,1-6.56,3.09,7.84,7.84,0,0,1-1.6.25c-.91-.25-1-1.94-1.12-2.39a18.75,18.75,0,0,1,2-9.19,22.15,22.15,0,0,1,2.8-3.38c.87-.91.29-2.44.34-3,.07-.74-1.8-1.44-2.31-1.44a6.54,6.54,0,0,0-4.41,2.23,46.4,46.4,0,0,1-3.18,3.54c-1.69,1.73-4,3.46-6.14,5.23-2.55,2-5,4-7.5,5.61-3,1.94-4.21,2.52-4.62,2.48-1-.09-1.15-.42-1.08-1a9.7,9.7,0,0,1,2-4.37,32.4,32.4,0,0,1,3.18-3.84c.78-.82,2-.94,2.92-1.69a30.12,30.12,0,0,0,2-2.43c1.24-1-.12-3.67-.78-4a4,4,0,0,0-3.63,0c-1.48.62-2.76,3-3,3.34-.67.74-2.11,2.39-3.72,4.45-.66.91-.82,1.2-1.52,2.23a46.5,46.5,0,0,0-3.88,6.22,10.36,10.36,0,0,0-1,4.58,2.79,2.79,0,0,0,.74,2.15,4.81,4.81,0,0,0,3.42,1.36,4.51,4.51,0,0,0,2.11-.86,47.87,47.87,0,0,0,5.23-4c1.4-1.23,2.68-2.55,4.08-3.71,1-.82,1.65-1.61,2.77-2.47a52.22,52.22,0,0,1,6.63-4.5c1.61-.86,2.27-.9,2.68-.69a44.29,44.29,0,0,0-2.18,7.74c-.25,1.28-.25,2.27-.46,3.34a5.13,5.13,0,0,0,.33,2.06,3.65,3.65,0,0,0,1.65,1.69,3.55,3.55,0,0,0,2.35.36,12.53,12.53,0,0,0,4.32-2,6,6,0,0,0,.92.6,20.38,20.38,0,0,0,3.34,1.41,34.65,34.65,0,0,0,3.75,1,18.09,18.09,0,0,0,5.44.41c1-.21,2.52-.17,3.79-.33a20.71,20.71,0,0,0,4.41-1c1-.45,2.16-.82,3.18-1.36a27,27,0,0,0,3.22-1.94c1.08-1.24,1.23-1.52,1.35-2.23a4.28,4.28,0,0,0-1-3.79,11.4,11.4,0,0,0-3.17-2.43c-1.11-.7-2.26-1.89-3.3-2.47a9.07,9.07,0,0,1-2.06-1.52c-.41-.46-2.06-1.16-1.4-2.23a3.4,3.4,0,0,1,1.77-1.73c.54-.25,1.28-.54,2.35-1.12.33-.24,1-.08,1.69-.41a14.71,14.71,0,0,1,2.47-.21c.58-.12.67.13.87.21s.46.13.54.54A7,7,0,0,0,923.56,104.32Zm-8.36,11.34c1.19.94,2.15,2.52,1.64,3.62a3.71,3.71,0,0,1-2.92,2.16c-1.24.12-2.48.54-3.43.66-2.68.25-4.12,0-5.75.13a18.36,18.36,0,0,1-5.2-.79,18.16,18.16,0,0,1-2.36-.79l.34-.24c1.28-.91,4.45-3.5,5.85-4.31l4.42-2.85a10.43,10.43,0,0,1,2.84-1.24l.25.17c.66.45,1.4.91,2.1,1.4A27.3,27.3,0,0,1,915.2,115.66Z" transform="translate(0 0)"/><path id="Path_266" data-name="Path 266" class="cls-3" d="M966.72,110.34a17.53,17.53,0,0,0-5.44,1.44c-1.64.53-3.59,1.31-5.6,2.16-2.48,1-5.07,2.18-7.5,3.21-1.78.79-3.51,1.49-4.91,2.06a15.76,15.76,0,0,1-6.31,1.32,1.67,1.67,0,0,1-1.61-1.72,1.33,1.33,0,0,1,0-.34,15,15,0,0,1,1.69-3.46,9.94,9.94,0,0,1,.78-1.24l4.62-2.43c1.53-.78,3.13-1.61,4.53-2.22,1.2-.54,2.27-1,3.3-1.36,1.94-.71,3.63-1.16,5.11-1.57a15.91,15.91,0,0,0,2.31-.83,5.74,5.74,0,0,0,2.22-1.48c.54-.62.54-2.1.67-2.76s-1.32-2-2-2.48a5.27,5.27,0,0,0-3.42-.57,21.59,21.59,0,0,0-3.91.66,20.67,20.67,0,0,0-5,1.93c-1.15.62-2.43,1.4-3.67,2.23a46.1,46.1,0,0,0-4.08,3,42.19,42.19,0,0,0-5.07,4.66,31.86,31.86,0,0,0-3.83,5,16,16,0,0,0-1.53,4.13,5.5,5.5,0,0,0,1.12,3.83,5.73,5.73,0,0,0,4.41,1.9,16.06,16.06,0,0,0,4-.75c2.3-.9,4.08-1.85,6.92-3.13,1.86-.91,3.55-1.77,5.24-2.68s3.17-1.73,4.86-2.55,3.71-1.57,5.27-2.31a27.22,27.22,0,0,1,4-1.57c1.28-.36,2,.17,2.81-.12.62-.21,1.08-.74,1.08-1.08S967.21,110.34,966.72,110.34Zm-23.61-2.19a26.17,26.17,0,0,1,4-3.17,37.75,37.75,0,0,1,3.95-2.52,3.27,3.27,0,0,1,2.16-.08v.33a2.64,2.64,0,0,1-.94,1.57,20,20,0,0,1-2.6,1.6l-3.71,2c-2.35,1.2-4.21,2.1-5.28,2.6.77-.81,1.58-1.58,2.42-2.31Z" transform="translate(0 0)"/></g><g id="Group_90" data-name="Group 90"><g id="Group_87" data-name="Group 87"><path id="Path_267" data-name="Path 267" class="cls-4" d="M39.21,107.26a2.94,2.94,0,0,1,2.85.84,35.15,35.15,0,0,0,18.5,8.51,25.61,25.61,0,0,0,9.63-.55,8.73,8.73,0,0,0,2.2-.88A5.86,5.86,0,0,0,76,109.25a5.93,5.93,0,0,0-3.8-5.39,48.51,48.51,0,0,0-7.25-2.31A72.22,72.22,0,0,1,52.77,98a22,22,0,0,1-9.59-7.32,21.48,21.48,0,0,1-3.53-11.28A21,21,0,0,1,44.46,64a26.22,26.22,0,0,1,15.47-8.63,49.76,49.76,0,0,1,24.3,2c1.76.54,3.46,1.25,5.18,2a1.08,1.08,0,0,1,.58.82c0,5.25,0,10.54,0,15.75a3.11,3.11,0,0,1-.07.44,2.7,2.7,0,0,1-2.52-.64,30.32,30.32,0,0,0-19.72-7.55,17.25,17.25,0,0,0-7.63,1.52A6.29,6.29,0,0,0,56.36,77a4.51,4.51,0,0,0,2.58,3.19,61.37,61.37,0,0,0,6.88,2.37,111.27,111.27,0,0,1,13.49,3.93A22.86,22.86,0,0,1,88.59,93a19.27,19.27,0,0,1,3.9,11.72,23.31,23.31,0,0,1-3,13.12,24.75,24.75,0,0,1-15.25,11.11A47.4,47.4,0,0,1,59,130.13a52.08,52.08,0,0,1-19.06-5.19c-.45-.2-.72-.36-.72-1,0-5.45,0-10.91,0-16.4A.74.74,0,0,0,39.21,107.26Z" transform="translate(0 0)"/><path id="Path_268" data-name="Path 268" class="cls-4" d="M288.44,111.6c0,.45.07.65.07.85v12.84a.93.93,0,0,1-.58.95,43.16,43.16,0,0,1-28.74,3.19A23.27,23.27,0,0,1,240.45,110,38.21,38.21,0,0,1,242,88.19a23.47,23.47,0,0,1,20.5-15.69,29.28,29.28,0,0,1,12.95,1.12,19.07,19.07,0,0,1,12.37,13.31,36.52,36.52,0,0,1,1.56,10.33c.07,2.45,0,4.92,0,7.56H255.06a12.46,12.46,0,0,0,6.07,11.25,19.39,19.39,0,0,0,10.4,2,27.14,27.14,0,0,0,14.84-5.83A4.73,4.73,0,0,1,288.44,111.6ZM255,94.29h19.48c-.14-1.19-.24-2.3-.41-3.39a7.91,7.91,0,0,0-7.52-7.52C260.38,82.65,255.11,86,255,94.27Z" transform="translate(0 0)"/><path id="Path_269" data-name="Path 269" class="cls-4" d="M189.71,102.1a35.6,35.6,0,0,1-3.19,15.35,22.18,22.18,0,0,1-18.2,13,29.43,29.43,0,0,1-14.81-1.53,22.94,22.94,0,0,1-13.69-15.76,43.49,43.49,0,0,1-1.32-16.57,30.4,30.4,0,0,1,4.24-13.45,22.18,22.18,0,0,1,16.94-10.67,30.43,30.43,0,0,1,14.17,1.28,22.67,22.67,0,0,1,13.89,14.71A39.84,39.84,0,0,1,189.71,102.1ZM174,101.74c0-1.21.07-2.47,0-3.69a21.77,21.77,0,0,0-2.2-9A8.28,8.28,0,0,0,164,84.49a8,8,0,0,0-7.73,4.43,15.35,15.35,0,0,0-1,2.24A35.65,35.65,0,0,0,154,105.09a22.73,22.73,0,0,0,1.82,8.2,8.41,8.41,0,0,0,7.7,5.12,8.08,8.08,0,0,0,8.09-4.37,22.24,22.24,0,0,0,1.26-2.82,27.22,27.22,0,0,0,1.08-9.46Z" transform="translate(0 0)"/><path id="Path_270" data-name="Path 270" class="cls-4" d="M103.5,58.22h15.15V73.91h14v12H118.76a3.94,3.94,0,0,0-.11.44c0,8.2,0,16.36,0,24.56a12,12,0,0,0,.64,3.36,5.2,5.2,0,0,0,4.48,3.69,12.74,12.74,0,0,0,7.08-1.25,14.61,14.61,0,0,1,1.73-.44c0,.44.07.72.07,1v10.47c0,.4.06.81-.51.95a36.47,36.47,0,0,1-18.78.44,12.51,12.51,0,0,1-9.35-11,40.58,40.58,0,0,1-.54-6c-.07-8.44,0-16.88,0-25.28v-.88H97.34V74h6.13C103.5,68.65,103.5,63.5,103.5,58.22Z" transform="translate(0 0)"/><path id="Path_271" data-name="Path 271" class="cls-4" d="M234.58,90.88c-1.57-.23-3-.53-4.51-.67a28.06,28.06,0,0,0-13.67,1.62,1.14,1.14,0,0,0-.81,1.22V129H200.51V74h15.08v8c.74-.67,1.28-1.21,1.86-1.73a22.86,22.86,0,0,1,10.43-6.11,20,20,0,0,1,6.68-.17Z" transform="translate(0 0)"/></g><g id="Group_88" data-name="Group 88"><path id="Path_272" data-name="Path 272" class="cls-4" d="M298.55,73.69a14.32,14.32,0,0,1-14.39-14.25h0a14.39,14.39,0,0,1,28.77-.13v.1a14.33,14.33,0,0,1-14.38,14.29Zm-.05-2.38a12,12,0,0,0,12-11.89v0a12,12,0,0,0-12.06-12h0a12,12,0,0,0,.06,24Z" transform="translate(0 0)"/><path id="Path_273" data-name="Path 273" class="cls-4" d="M300.81,59.79a4,4,0,0,1,2.28,2.88c.42,1.59.83,3.18,1.23,4.79-.57,0-1.14,0-1.71,0a.81.81,0,0,1-.5-.44c-.34-1.16-.6-2.35-.91-3.51a10.14,10.14,0,0,0-.47-1.41,2.34,2.34,0,0,0-1.8-1.44c-.93-.11-1.88-.11-2.88-.19v7h-2V51.64a18.44,18.44,0,0,1,5-.31,10.83,10.83,0,0,1,2,.4,3.79,3.79,0,0,1,2.85,3.69,4,4,0,0,1-2.28,4A8.34,8.34,0,0,1,300.81,59.79Zm-4.8-.86c.92,0,1.85,0,2.78,0a4.19,4.19,0,0,0,1.57-.5,2.76,2.76,0,0,0,1.43-2.85,2.6,2.6,0,0,0-2-2.4,7.2,7.2,0,0,0-3.42-.1.54.54,0,0,0-.33.39c-.06,1.8-.06,3.6-.06,5.48Z" transform="translate(0 0)"/></g><g id="Group_89" data-name="Group 89"><path id="Path_274" data-name="Path 274" class="cls-3" d="M53.38,154.45a6,6,0,0,1-2.29,5,9.94,9.94,0,0,1-6.33,1.8A15,15,0,0,1,38.15,160v-3.68a18.44,18.44,0,0,0,3.46,1.21,15,15,0,0,0,3.41.44,5.44,5.44,0,0,0,3.4-.88,2.88,2.88,0,0,0,1.11-2.36,2.93,2.93,0,0,0-1-2.26,15,15,0,0,0-4.16-2.2,11,11,0,0,1-4.59-3,6.36,6.36,0,0,1-1.33-4.07,5.69,5.69,0,0,1,2.11-4.67,8.72,8.72,0,0,1,5.68-1.71,16.59,16.59,0,0,1,6.8,1.49l-1.23,3.18a14.81,14.81,0,0,0-5.67-1.34,4.39,4.39,0,0,0-2.88.83,2.66,2.66,0,0,0-1,2.15,3,3,0,0,0,.39,1.59A3.92,3.92,0,0,0,44,145.92a21.19,21.19,0,0,0,3.22,1.55,17.86,17.86,0,0,1,3.84,2,6,6,0,0,1,1.8,2.14A6.46,6.46,0,0,1,53.38,154.45Z" transform="translate(0 0)"/><path id="Path_275" data-name="Path 275" class="cls-3" d="M66.14,160.91V137.12H70v23.79Z" transform="translate(0 0)"/><path id="Path_276" data-name="Path 276" class="cls-3" d="M104.3,160.91H99.54L87.83,142h-.11L87.8,143c.15,2,.23,3.87.23,5.54v12.37H84.48V137.12H89.2L100.87,156H101c0-.24-.06-1.14-.13-2.72s-.09-2.79-.09-3.67V137.12h3.56Z" transform="translate(0 0)"/><path id="Path_277" data-name="Path 277" class="cls-3" d="M128.48,148h8.75v11.94a25.25,25.25,0,0,1-4.12,1,29.22,29.22,0,0,1-4.28.29,10.75,10.75,0,0,1-8.33-3.2,12.89,12.89,0,0,1-2.92-9,12,12,0,0,1,3.3-9,12.43,12.43,0,0,1,9.09-3.24,17.71,17.71,0,0,1,7.07,1.44l-1.37,3.24a13.68,13.68,0,0,0-5.79-1.34,7.81,7.81,0,0,0-6,2.39,9.27,9.27,0,0,0-2.22,6.55,9.83,9.83,0,0,0,2,6.63,7.23,7.23,0,0,0,5.75,2.27,19.63,19.63,0,0,0,4-.47v-6.14H128.5Z" transform="translate(0 0)"/><path id="Path_278" data-name="Path 278" class="cls-3" d="M165.86,160.91l-2.37-6.61H154.4l-2.34,6.61H148l8.9-23.89h4.23l8.9,23.89Zm-3.4-10-2.22-6.48c-.17-.43-.39-1.12-.68-2.05s-.48-1.61-.6-2a34.88,34.88,0,0,1-1.28,4.38l-2.16,6.2Z" transform="translate(0 0)"/><path id="Path_279" data-name="Path 279" class="cls-3" d="M197.07,144.31a6.93,6.93,0,0,1-2.44,5.71,10.77,10.77,0,0,1-6.95,2H185.2v8.91h-3.89V137.12h6.84a10.31,10.31,0,0,1,6.68,1.82A6.57,6.57,0,0,1,197.07,144.31Zm-11.87,4.42h2.07a7.35,7.35,0,0,0,4.39-1,3.77,3.77,0,0,0,1.4-3.24,3.71,3.71,0,0,0-1.25-3.06,6.21,6.21,0,0,0-3.91-1h-2.7Z" transform="translate(0 0)"/><path id="Path_280" data-name="Path 280" class="cls-3" d="M231.09,149a13,13,0,0,1-2.9,9,12.21,12.21,0,0,1-16.5,0,13.08,13.08,0,0,1-2.88-9.09,12.87,12.87,0,0,1,2.91-9.05,10.67,10.67,0,0,1,8.27-3.15,10.47,10.47,0,0,1,8.2,3.2A13,13,0,0,1,231.09,149Zm-18.16,0a10.64,10.64,0,0,0,1.78,6.66,7.22,7.22,0,0,0,10.48,0A10.67,10.67,0,0,0,227,149a10.68,10.68,0,0,0-1.75-6.64,6.16,6.16,0,0,0-5.22-2.26,6.3,6.3,0,0,0-5.28,2.26,10.63,10.63,0,0,0-1.78,6.64Z" transform="translate(0 0)"/><path id="Path_281" data-name="Path 281" class="cls-3" d="M248.26,151.4v9.51h-3.89V137.12h6.72a11,11,0,0,1,6.83,1.72,6.23,6.23,0,0,1,2.22,5.21,6.53,6.53,0,0,1-4.63,6.33l6.72,10.53h-4.42l-5.7-9.51Zm0-3.23H251a6.22,6.22,0,0,0,3.93-1,3.67,3.67,0,0,0,1.22-3,3.21,3.21,0,0,0-1.32-2.89,7.16,7.16,0,0,0-3.95-.88h-2.57Z" transform="translate(0 0)"/><path id="Path_282" data-name="Path 282" class="cls-3" d="M287.29,160.91H273.83V137.12h13.46v3.28h-9.57v6.48h9v3.23h-9v7.47h9.57Z" transform="translate(0 0)"/></g></g></g></svg>